# xmcd
#
# Track frame offsets:
#   150
#   6119
#   24040
#   39057
#   60148
#   73401
#   87280
#   105593
#   120659
#   138760
#   152240
#   174533
#   192796
#   208784
#   223730
#   240812
#
# Disc length: 3421 seconds
#
# Revision: 0
# Processed by: cddbd v1.5.2PL0 Copyright (c) Steve Scherf et al.
# Submitted via: uFREEDB ActiveX Control 1.5
#
DISCID=c50d5b10
DTITLE=CESAR OLIVEIRA E ROGERIO MELLO - CANTIGA PARA O MEU CHAO
DYEAR=2010
DGENRE=Country
TTITLE0=Abertura - Pedro Ortaca
TTITLE1=Recuerdo
TTITLE2=Domador de fronteira
TTITLE3=Uma milonga das buenas
TTITLE4=Cantiga para o meu chao
TTITLE5=Coracao de cordeona
TTITLE6=Serenata campeira
TTITLE7=A pior e minha
TTITLE8=De saltar calando
TTITLE9=Ao trote
TTITLE10=Zamba de las tolderias/Chaccarera del rancho
TTITLE11=Espiando na janela
TTITLE12=Colpas de um todador
TTITLE13=No estilo da fronteira
TTITLE14=Cena de campanha
TTITLE15=Cruzando a Vila Ansina
EXTD=
EXTT0=
EXTT1=
EXTT2=
EXTT3=
EXTT4=
EXTT5=
EXTT6=
EXTT7=
EXTT8=
EXTT9=
EXTT10=
EXTT11=
EXTT12=
EXTT13=
EXTT14=
EXTT15=
PLAYORDER=
